<?xml version="1.0" encoding="utf-8"?>
<!-- Generator: Adobe Illustrator 25.4.1, SVG Export Plug-In . SVG Version: 6.00 Build 0)  -->
<svg version="1.0" id="katman_1" xmlns="http://www.w3.org/2000/svg" xmlns:xlink="http://www.w3.org/1999/xlink" x="0px" y="0px"
	 viewBox="0 0 1024 768" style="enable-background:new 0 0 1024 768;" xml:space="preserve">
<style type="text/css">
	.st0{fill:#006E9C;}
	.st1{fill:#FFD200;}
</style>
<g>
	<path class="st0" d="M612.9,391.1c2.1-6.7,3.9-13.4,6-20.4c2.6-8.8,5-17.4,7.7-26.1c1.9-6.2,5-8.6,11.4-8.6c4.5,0,9,0,13.4,0
		c5.8,0,9.2,2.4,10.8,8c4.3,14.2,8.4,28.6,12.5,42.8c0.4,1.3,0.9,2.8,1.9,4.1c0.7-2.2,1.3-4.3,2.1-6.5c3.7-12.7,7.5-25.6,11.4-38.3
		c2.2-7.5,6-10.3,13.6-10.3c4.9,0,9.7,0,14.4,0c4.1,0,5.8,1.9,4.9,5.8c-1.3,5-3,10.1-4.5,14.9c-7.3,22.8-14.8,45.8-22,68.5
		c-2.1,6.2-6,8.8-12.3,9c-3.5,0-7.1,0-10.6,0c-6.3,0-10.5-3-12.3-9c-5-16.2-10.3-32.5-15.3-48.7c-0.2-0.9-0.6-1.7-1.1-3.4
		c-0.6,1.5-0.7,2.2-1.1,3c-5.2,16.2-10.3,32.7-15.5,48.9c-1.9,6.2-6,9-12.5,9c-3.7,0-7.3,0-11,0c-6,0-9.9-3-11.8-8.6
		c-8-24.8-15.9-49.5-23.9-74.3c-0.7-2.6-1.7-5-2.4-7.7c-0.4-1.3-0.6-2.6-0.6-3.9c0-2.6,1.3-3.9,3.9-3.9c6,0,11.8-0.2,17.7,0
		c5.4,0.2,9.3,3.4,11,8.6c4.3,14.6,8.6,29.1,13.1,43.7c0.2,0.9,0.6,1.7,0.7,2.6C612.4,391.1,612.6,391.1,612.9,391.1z"/>
	<path class="st0" d="M528.9,426.6c-1.5,0.9-2.8,1.7-4.1,2.4c-9.3,5.8-19.8,7.7-30.6,7.3c-7.1-0.4-13.8-1.5-20.4-4.5
		c-11.8-5.4-18.3-15.5-17.9-27.5c0.4-13.4,7.3-22.2,19.6-27.1c6.5-2.6,13.4-3.7,20.5-3.7c9.2,0,18.5,0,27.6,0c2.4,0,3-0.7,2.8-3
		c-1.3-11.4-6-15.9-17.6-15.9c-4.7,0-9.2,0.6-13.3,2.8c-1.5,0.9-3,2.1-4.3,3.4c-2.8,3.2-6.2,4.7-10.3,4.7c-3.9,0-7.8,0-11.8,0
		c-4.7,0-6.7-2.4-6.3-7.1c0.7-9.2,5.6-15.1,13.8-18.9c6.7-3,13.8-4.1,21.1-4.9c10.1-0.7,20.2-1.1,30.1,1.5
		c10.8,2.6,19.6,8,24.8,18.3c2.8,5.6,3.9,11.4,3.9,17.6c0,18.7,0,37.4,0,56.2c0,4.5-1.9,6.2-6.2,6.2c-4.9,0-9.7,0-14.4,0
		c-4.9,0-6.5-1.5-6.7-6.5C529.1,427.7,529.1,427.3,528.9,426.6z M511.2,393.9c-4.5,0.2-9.2,0-13.6,0.2c-4.5,0.2-8.2,2.2-10.3,6.5
		c-3,6.3,0.7,13.3,8,14.8c11,2.2,20.9-1.3,30.3-6.9c0.6-0.4,0.9-1.5,0.9-2.4c0.2-3.2,0-6.5,0-9.7c0-1.9-0.7-2.4-2.4-2.4
		C519.7,393.9,515.5,393.9,511.2,393.9z"/>
	<path class="st0" d="M870.1,427.1c-3-0.4-5.6-0.6-8-1.1c-8.4-1.5-15.1-5.8-20.4-12.5c-5.8-7.5-9.3-15.9-12.1-24.7
		c-4.9-15.5-9.5-31-14-46.5c-1.1-3.7,0.6-6,4.5-6c5.6,0,11.4,0,17,0c4.5,0,7.5,2.2,8.8,6.7c4.3,13.8,8.4,27.6,12.7,41.5
		c1.7,5.6,3.9,11,7.7,15.7c2,2.4,4.5,4.3,7.7,4.9c1.9,0.4,2.8,0,3.4-2.1c5-18.3,10.1-36.6,15.1-54.9c0.6-1.9,1.1-3.9,1.7-5.8
		c1.1-3.9,3.9-6,8-6c5.6,0,11.2,0,16.8,0c4.3,0,6,2.2,4.9,6.2c-8,29.1-15.9,58.5-24.1,87.6c-1.9,6.7-4.9,13.3-8,19.4
		c-6,11.4-15.9,17.4-28.8,17.2c-7.8,0-15.7-0.9-23.5-1.9c-3.9-0.4-5.6-2.6-5.6-6.5c0-3,0-5.8,0-8.8c0-3.5,2.1-5.6,5.6-5.6
		c3.7,0.2,7.7,0.6,11.4,1.1c5.4,0.9,10.1-0.6,13.6-4.7C867.1,436.7,868.8,432.2,870.1,427.1z"/>
	<path class="st0" d="M380.8,385.1c0-14.2-0.4-28.2,0.2-42.4c0.2-5.6,1.5-11.4,3.2-16.8c3.7-11.2,12.5-17,23.5-19.6
		c12.1-3,24.5-2.8,36.8-1.7c3.2,0.2,6.3,0.7,9.3,1.3c3.9,0.7,5.6,2.8,5.6,6.7c0,2.8,0,5.4,0,8.2c-0.2,3.9-2.1,6-6.2,6
		c-2.8,0-5.6-0.2-8.4-0.7c-7.5-1.5-14.9-0.9-22.2,0.9c-7.1,1.7-10.5,6-11.4,14.2c-0.4,2.4-0.4,5-0.6,7.5c-0.2,2.2,0.6,3,3,3
		c9.2-0.2,18.5,0,27.6,0c4.9,0,6.5,1.7,6.7,6.5c0,3,0,6,0,9c0,3.9-2.1,6-6.2,6c-9.3,0-18.9,0-28.2,0c-2.2,0-3,0.7-3,3
		c0,17.2,0,34.4,0,51.7c0,5.2-1.7,6.9-6.9,6.9c-5.4,0-11,0-16.4,0c-5,0-6.7-1.7-6.7-6.7C380.6,413.5,380.6,399.3,380.8,385.1z"/>
	<path class="st0" d="M766.1,347.2c2.8-1.9,4.9-3.4,6.9-4.7c9.7-6.3,20.5-8.2,31.9-8.2c3.2,0,5.2,2.1,5.4,5.4
		c0.2,4.5,0.2,9.2,0,13.6c-0.2,3.5-2.1,5.4-5.6,5.4c-4.1,0-8.4,0-12.5-0.4c-8.2-0.7-14.9,2.2-21.1,7.7c-3.7,3.4-5.4,6.9-5.2,12.1
		c0.4,16.4,0.2,32.9,0.2,49.5c0,5.2-1.7,6.9-7.1,6.9c-5.8,0-11.4,0-17.2,0c-3.9,0-6-2.1-6-6c0-28.8,0-57.5,0-86.3c0-3.9,2.1-6,6-6
		c6.2,0,12.3,0,18.5,0c3.7,0,5.6,2.1,5.8,5.8C766.1,343.5,766.1,345,766.1,347.2z"/>
	<path class="st1" d="M333.9,384.4c0,64.4-52.1,116.5-116.5,116.5c-12.3,0-24.1-1.9-35.1-5.4c-16.6-5.2-31.7-14.2-44.3-26
		c-23-21.1-37.2-51.5-37.2-85.2c0-64.4,52.1-116.5,116.5-116.5c14,0,27.3,2.4,39.6,6.9c16.1,5.8,30.6,15.1,42.4,26.9
		C320.7,322.9,333.9,352.1,333.9,384.4z"/>
	<path class="st0" d="M271.4,433.9l-15.7-7.8c0,0-26.7,48.7-73.6,69.5c-16.6-5.2-31.7-14.2-44.3-26c10.3-1.5,26.9-6.7,44.3-23.9
		c28.6-28,35.1-43.5,35.1-43.5l-12.3-8.2c-4.3-2.8-3.4-9.2,1.3-10.8l53.8-18.7c3.7-1.3,7.7,1.1,8,5l8,60.9
		C276.8,433.1,274,435.2,271.4,433.9z"/>
	<path class="st0" d="M287.6,366.4c-1.3,3.4-6.2,2.8-6.7-0.7l-3.5-20.5l-26.5,8.2c-3,0.9-5.6-2.1-4.3-4.9c3.5-7.5,8.6-20,12.7-36
		c3.7-15.3,1.1-28.8-2.1-37.5c16.1,5.8,30.6,15.1,42.4,26.9C301.6,326.1,293.2,352.1,287.6,366.4z"/>
</g>
</svg>
